<svg width="432.544" height="432.544" xmlns="http://www.w3.org/2000/svg">

 <g>
  <title>background</title>
  <rect fill="none" id="canvas_background" height="402" width="582" y="-1" x="-1"/>
 </g>
 <g>
  <title>Layer 1</title>
  <g fill="white" id="svg_1">
   <g id="svg_2">
    <path fill="#b2b2b2" id="svg_3" d="m0,313.775l0,118.77l118.771,0l237.541,-237.541l-118.773,-118.772l-237.539,237.543zm103.638,82.224l0,0l-30.55,0.004l0,-36.546l-36.543,0l0,-30.553l25.981,-25.981l67.093,67.092l-25.981,25.984zm143.045,-271.229c4.182,0 6.276,2.095 6.276,6.28c0,1.906 -0.664,3.521 -1.999,4.856l-154.746,154.745c-1.333,1.328 -2.952,1.995 -4.854,1.995c-4.184,0 -6.279,-2.098 -6.279,-6.279c0,-1.906 0.666,-3.521 1.997,-4.856l154.747,-154.743c1.329,-1.332 2.948,-1.998 4.858,-1.998z"/>
    <path fill="#b2b2b2" id="svg_4" d="m421.976,78.654l-67.091,-66.806c-7.232,-7.229 -15.893,-10.848 -25.982,-10.848c-10.283,0 -18.842,3.619 -25.693,10.848l-47.394,47.109l118.773,118.77l47.394,-47.392c7.042,-7.043 10.561,-15.608 10.561,-25.697c-0.004,-9.895 -3.522,-18.558 -10.568,-25.984z"/>
   </g>
  </g>
  <g id="svg_5"/>
  <g id="svg_6"/>
  <g id="svg_7"/>
  <g id="svg_8"/>
  <g id="svg_9"/>
  <g id="svg_10"/>
  <g id="svg_11"/>
  <g id="svg_12"/>
  <g id="svg_13"/>
  <g id="svg_14"/>
  <g id="svg_15"/>
  <g id="svg_16"/>
  <g id="svg_17"/>
  <g id="svg_18"/>
  <g id="svg_19"/>
 </g>
</svg>